# xmcd
#
# Track frame offsets:
#	150
#	12375
#	23287
#	35250
#	48750
#	59925
#	79425
#	89250
#	98850
#	110877
#	125400
#	137550
#	150150
#	164090
#
# Disc length: 2370 seconds
# Revision: 3
# Processed by: cddbd v1.5.2PL0 Copyright (c) Steve Scherf et al.
# Submitted via: dBpowerAMP V12.0
#
DISCID=b209400e
DTITLE=Koko Taylor - Love You Like A Woman
DYEAR=1996
DGENRE=Blues
TTITLE0=Don't Mess With The Messer
TTITLE1=Whatever I Am, You Made Me
TTITLE2=I'm A Little Mixed Up
TTITLE3=Wang Dang Doodle
TTITLE4=Fire
TTITLE5=Insane Asylum
TTITLE6=I Don't Care Who Knows
TTITLE7=I Love You Like A Woman
TTITLE8=Yes, It's Good For You
TTITLE9=Twenty-Nine Ways
TTITLE10=Nitty Gritty
TTITLE11=I Love A Lover Like You
TTITLE12=I Got What It Takes
TTITLE13=What Kind Of Man Is This?
EXTD=
EXTT0=
EXTT1=
EXTT2=
EXTT3=
EXTT4=
EXTT5=
EXTT6=
EXTT7=
EXTT8=
EXTT9=
EXTT10=
EXTT11=
EXTT12=
EXTT13=
PLAYORDER=
